<svg width="84" height="25" viewBox="0 0 84 25" fill="none" xmlns="http://www.w3.org/2000/svg">
<circle cx="12" cy="13" r="12" fill="#8720DF"/>
<path d="M15.485 15.14H11.555L10.925 17H8.24L12.05 6.47H15.02L18.83 17H16.115L15.485 15.14ZM14.825 13.16L13.52 9.305L12.23 13.16H14.825ZM22.5546 9.815C22.7946 9.425 23.1396 9.11 23.5896 8.87C24.0396 8.63 24.5546 8.51 25.1346 8.51C25.8246 8.51 26.4496 8.685 27.0096 9.035C27.5696 9.385 28.0096 9.885 28.3296 10.535C28.6596 11.185 28.8246 11.94 28.8246 12.8C28.8246 13.66 28.6596 14.42 28.3296 15.08C28.0096 15.73 27.5696 16.235 27.0096 16.595C26.4496 16.945 25.8246 17.12 25.1346 17.12C24.5446 17.12 24.0296 17.005 23.5896 16.775C23.1496 16.535 22.8046 16.22 22.5546 15.83V17H19.9896V5.9H22.5546V9.815ZM26.2146 12.8C26.2146 12.16 26.0346 11.66 25.6746 11.3C25.3246 10.93 24.8896 10.745 24.3696 10.745C23.8596 10.745 23.4246 10.93 23.0646 11.3C22.7146 11.67 22.5396 12.175 22.5396 12.815C22.5396 13.455 22.7146 13.96 23.0646 14.33C23.4246 14.7 23.8596 14.885 24.3696 14.885C24.8796 14.885 25.3146 14.7 25.6746 14.33C26.0346 13.95 26.2146 13.44 26.2146 12.8ZM33.9802 17.12C33.1602 17.12 32.4202 16.945 31.7602 16.595C31.1102 16.245 30.5952 15.745 30.2152 15.095C29.8452 14.445 29.6602 13.685 29.6602 12.815C29.6602 11.955 29.8502 11.2 30.2302 10.55C30.6102 9.89 31.1302 9.385 31.7902 9.035C32.4502 8.685 33.1902 8.51 34.0102 8.51C34.8302 8.51 35.5702 8.685 36.2302 9.035C36.8902 9.385 37.4102 9.89 37.7902 10.55C38.1702 11.2 38.3602 11.955 38.3602 12.815C38.3602 13.675 38.1652 14.435 37.7752 15.095C37.3952 15.745 36.8702 16.245 36.2002 16.595C35.5402 16.945 34.8002 17.12 33.9802 17.12ZM33.9802 14.9C34.4702 14.9 34.8852 14.72 35.2252 14.36C35.5752 14 35.7502 13.485 35.7502 12.815C35.7502 12.145 35.5802 11.63 35.2402 11.27C34.9102 10.91 34.5002 10.73 34.0102 10.73C33.5102 10.73 33.0952 10.91 32.7652 11.27C32.4352 11.62 32.2702 12.135 32.2702 12.815C32.2702 13.485 32.4302 14 32.7502 14.36C33.0802 14.72 33.4902 14.9 33.9802 14.9ZM47.986 8.63V17H45.421V15.86C45.161 16.23 44.806 16.53 44.356 16.76C43.916 16.98 43.426 17.09 42.886 17.09C42.246 17.09 41.681 16.95 41.191 16.67C40.701 16.38 40.321 15.965 40.051 15.425C39.781 14.885 39.646 14.25 39.646 13.52V8.63H42.196V13.175C42.196 13.735 42.341 14.17 42.631 14.48C42.921 14.79 43.311 14.945 43.801 14.945C44.301 14.945 44.696 14.79 44.986 14.48C45.276 14.17 45.421 13.735 45.421 13.175V8.63H47.986ZM54.4934 14.825V17H53.1884C52.2584 17 51.5334 16.775 51.0134 16.325C50.4934 15.865 50.2334 15.12 50.2334 14.09V10.76H49.2134V8.63H50.2334V6.59H52.7984V8.63H54.4784V10.76H52.7984V14.12C52.7984 14.37 52.8584 14.55 52.9784 14.66C53.0984 14.77 53.2984 14.825 53.5784 14.825H54.4934ZM69.7809 8.54C70.8209 8.54 71.6459 8.855 72.2559 9.485C72.8759 10.115 73.1859 10.99 73.1859 12.11V17H70.6359V12.455C70.6359 11.915 70.4909 11.5 70.2009 11.21C69.9209 10.91 69.5309 10.76 69.0309 10.76C68.5309 10.76 68.1359 10.91 67.8459 11.21C67.5659 11.5 67.4259 11.915 67.4259 12.455V17H64.8759V12.455C64.8759 11.915 64.7309 11.5 64.4409 11.21C64.1609 10.91 63.7709 10.76 63.2709 10.76C62.7709 10.76 62.3759 10.91 62.0859 11.21C61.8059 11.5 61.6659 11.915 61.6659 12.455V17H59.1009V8.63H61.6659V9.68C61.9259 9.33 62.2659 9.055 62.6859 8.855C63.1059 8.645 63.5809 8.54 64.1109 8.54C64.7409 8.54 65.3009 8.675 65.7909 8.945C66.2909 9.215 66.6809 9.6 66.9609 10.1C67.2509 9.64 67.6459 9.265 68.1459 8.975C68.6459 8.685 69.1909 8.54 69.7809 8.54ZM82.8698 12.68C82.8698 12.92 82.8548 13.17 82.8248 13.43H77.0198C77.0598 13.95 77.2248 14.35 77.5148 14.63C77.8148 14.9 78.1798 15.035 78.6098 15.035C79.2498 15.035 79.6948 14.765 79.9448 14.225H82.6748C82.5348 14.775 82.2798 15.27 81.9098 15.71C81.5498 16.15 81.0948 16.495 80.5448 16.745C79.9948 16.995 79.3798 17.12 78.6998 17.12C77.8798 17.12 77.1498 16.945 76.5098 16.595C75.8698 16.245 75.3698 15.745 75.0098 15.095C74.6498 14.445 74.4698 13.685 74.4698 12.815C74.4698 11.945 74.6448 11.185 74.9948 10.535C75.3548 9.885 75.8548 9.385 76.4948 9.035C77.1348 8.685 77.8698 8.51 78.6998 8.51C79.5098 8.51 80.2298 8.68 80.8598 9.02C81.4898 9.36 81.9798 9.845 82.3298 10.475C82.6898 11.105 82.8698 11.84 82.8698 12.68ZM80.2448 12.005C80.2448 11.565 80.0948 11.215 79.7948 10.955C79.4948 10.695 79.1198 10.565 78.6698 10.565C78.2398 10.565 77.8748 10.69 77.5748 10.94C77.2848 11.19 77.1048 11.545 77.0348 12.005H80.2448Z" fill="white"/>
</svg>
