<svg width="167" height="25" viewBox="0 0 167 25" fill="none" xmlns="http://www.w3.org/2000/svg">
<path d="M49.03 7.53L46.105 18H43.63L41.665 10.545L39.61 18L37.15 18.015L34.33 7.53H36.58L38.425 15.66L40.555 7.53H42.895L44.905 15.615L46.765 7.53H49.03ZM58.1262 13.665C58.1262 13.965 58.1062 14.235 58.0662 14.475H51.9912C52.0412 15.075 52.2512 15.545 52.6212 15.885C52.9912 16.225 53.4462 16.395 53.9862 16.395C54.7662 16.395 55.3212 16.06 55.6512 15.39H57.9162C57.6762 16.19 57.2162 16.85 56.5362 17.37C55.8562 17.88 55.0212 18.135 54.0312 18.135C53.2312 18.135 52.5112 17.96 51.8712 17.61C51.2412 17.25 50.7462 16.745 50.3862 16.095C50.0362 15.445 49.8612 14.695 49.8612 13.845C49.8612 12.985 50.0362 12.23 50.3862 11.58C50.7362 10.93 51.2262 10.43 51.8562 10.08C52.4862 9.73 53.2112 9.555 54.0312 9.555C54.8212 9.555 55.5262 9.725 56.1462 10.065C56.7762 10.405 57.2612 10.89 57.6012 11.52C57.9512 12.14 58.1262 12.855 58.1262 13.665ZM55.9512 13.065C55.9412 12.525 55.7462 12.095 55.3662 11.775C54.9862 11.445 54.5212 11.28 53.9712 11.28C53.4512 11.28 53.0112 11.44 52.6512 11.76C52.3012 12.07 52.0862 12.505 52.0062 13.065H55.9512ZM61.759 10.905C62.029 10.505 62.399 10.18 62.869 9.93C63.349 9.68 63.894 9.555 64.504 9.555C65.214 9.555 65.854 9.73 66.424 10.08C67.004 10.43 67.459 10.93 67.789 11.58C68.129 12.22 68.299 12.965 68.299 13.815C68.299 14.665 68.129 15.42 67.789 16.08C67.459 16.73 67.004 17.235 66.424 17.595C65.854 17.955 65.214 18.135 64.504 18.135C63.884 18.135 63.339 18.015 62.869 17.775C62.409 17.525 62.039 17.205 61.759 16.815V18H59.659V6.9H61.759V10.905ZM66.154 13.815C66.154 13.315 66.049 12.885 65.839 12.525C65.639 12.155 65.369 11.875 65.029 11.685C64.699 11.495 64.339 11.4 63.949 11.4C63.569 11.4 63.209 11.5 62.869 11.7C62.539 11.89 62.269 12.17 62.059 12.54C61.859 12.91 61.759 13.345 61.759 13.845C61.759 14.345 61.859 14.78 62.059 15.15C62.269 15.52 62.539 15.805 62.869 16.005C63.209 16.195 63.569 16.29 63.949 16.29C64.339 16.29 64.699 16.19 65.029 15.99C65.369 15.79 65.639 15.505 65.839 15.135C66.049 14.765 66.154 14.325 66.154 13.815ZM73.005 18.135C72.325 18.135 71.715 18.015 71.175 17.775C70.635 17.525 70.205 17.19 69.885 16.77C69.575 16.35 69.405 15.885 69.375 15.375H71.49C71.53 15.695 71.685 15.96 71.955 16.17C72.235 16.38 72.58 16.485 72.99 16.485C73.39 16.485 73.7 16.405 73.92 16.245C74.15 16.085 74.265 15.88 74.265 15.63C74.265 15.36 74.125 15.16 73.845 15.03C73.575 14.89 73.14 14.74 72.54 14.58C71.92 14.43 71.41 14.275 71.01 14.115C70.62 13.955 70.28 13.71 69.99 13.38C69.71 13.05 69.57 12.605 69.57 12.045C69.57 11.585 69.7 11.165 69.96 10.785C70.23 10.405 70.61 10.105 71.1 9.885C71.6 9.665 72.185 9.555 72.855 9.555C73.845 9.555 74.635 9.805 75.225 10.305C75.815 10.795 76.14 11.46 76.2 12.3H74.19C74.16 11.97 74.02 11.71 73.77 11.52C73.53 11.32 73.205 11.22 72.795 11.22C72.415 11.22 72.12 11.29 71.91 11.43C71.71 11.57 71.61 11.765 71.61 12.015C71.61 12.295 71.75 12.51 72.03 12.66C72.31 12.8 72.745 12.945 73.335 13.095C73.935 13.245 74.43 13.4 74.82 13.56C75.21 13.72 75.545 13.97 75.825 14.31C76.115 14.64 76.265 15.08 76.275 15.63C76.275 16.11 76.14 16.54 75.87 16.92C75.61 17.3 75.23 17.6 74.73 17.82C74.24 18.03 73.665 18.135 73.005 18.135ZM79.0639 8.7C78.6939 8.7 78.3839 8.585 78.1339 8.355C77.8939 8.115 77.7739 7.82 77.7739 7.47C77.7739 7.12 77.8939 6.83 78.1339 6.6C78.3839 6.36 78.6939 6.24 79.0639 6.24C79.4339 6.24 79.7389 6.36 79.9789 6.6C80.2289 6.83 80.3539 7.12 80.3539 7.47C80.3539 7.82 80.2289 8.115 79.9789 8.355C79.7389 8.585 79.4339 8.7 79.0639 8.7ZM80.0989 9.69V18H77.9989V9.69H80.0989ZM84.6187 11.415V15.435C84.6187 15.715 84.6837 15.92 84.8137 16.05C84.9537 16.17 85.1837 16.23 85.5037 16.23H86.4787V18H85.1587C83.3887 18 82.5037 17.14 82.5037 15.42V11.415H81.5137V9.69H82.5037V7.635H84.6187V9.69H86.4787V11.415H84.6187ZM95.7141 13.665C95.7141 13.965 95.6941 14.235 95.6541 14.475H89.5791C89.6291 15.075 89.8391 15.545 90.2091 15.885C90.5791 16.225 91.0341 16.395 91.5741 16.395C92.3541 16.395 92.9091 16.06 93.2391 15.39H95.5041C95.2641 16.19 94.8041 16.85 94.1241 17.37C93.4441 17.88 92.6091 18.135 91.6191 18.135C90.8191 18.135 90.0991 17.96 89.4591 17.61C88.8291 17.25 88.3341 16.745 87.9741 16.095C87.6241 15.445 87.4491 14.695 87.4491 13.845C87.4491 12.985 87.6241 12.23 87.9741 11.58C88.3241 10.93 88.8141 10.43 89.4441 10.08C90.0741 9.73 90.7991 9.555 91.6191 9.555C92.4091 9.555 93.1141 9.725 93.7341 10.065C94.3641 10.405 94.8491 10.89 95.1891 11.52C95.5391 12.14 95.7141 12.855 95.7141 13.665ZM93.5391 13.065C93.5291 12.525 93.3341 12.095 92.9541 11.775C92.5741 11.445 92.1091 11.28 91.5591 11.28C91.0391 11.28 90.5991 11.44 90.2391 11.76C89.8891 12.07 89.6741 12.505 89.5941 13.065H93.5391ZM100.281 13.815C100.281 12.975 100.446 12.23 100.776 11.58C101.116 10.93 101.576 10.43 102.156 10.08C102.736 9.73 103.381 9.555 104.091 9.555C104.631 9.555 105.146 9.675 105.636 9.915C106.126 10.145 106.516 10.455 106.806 10.845V6.9H108.936V18H106.806V16.77C106.546 17.18 106.181 17.51 105.711 17.76C105.241 18.01 104.696 18.135 104.076 18.135C103.376 18.135 102.736 17.955 102.156 17.595C101.576 17.235 101.116 16.73 100.776 16.08C100.446 15.42 100.281 14.665 100.281 13.815ZM106.821 13.845C106.821 13.335 106.721 12.9 106.521 12.54C106.321 12.17 106.051 11.89 105.711 11.7C105.371 11.5 105.006 11.4 104.616 11.4C104.226 11.4 103.866 11.495 103.536 11.685C103.206 11.875 102.936 12.155 102.726 12.525C102.526 12.885 102.426 13.315 102.426 13.815C102.426 14.315 102.526 14.755 102.726 15.135C102.936 15.505 103.206 15.79 103.536 15.99C103.876 16.19 104.236 16.29 104.616 16.29C105.006 16.29 105.371 16.195 105.711 16.005C106.051 15.805 106.321 15.525 106.521 15.165C106.721 14.795 106.821 14.355 106.821 13.845ZM118.712 13.665C118.712 13.965 118.692 14.235 118.652 14.475H112.577C112.627 15.075 112.837 15.545 113.207 15.885C113.577 16.225 114.032 16.395 114.572 16.395C115.352 16.395 115.907 16.06 116.237 15.39H118.502C118.262 16.19 117.802 16.85 117.122 17.37C116.442 17.88 115.607 18.135 114.617 18.135C113.817 18.135 113.097 17.96 112.457 17.61C111.827 17.25 111.332 16.745 110.972 16.095C110.622 15.445 110.447 14.695 110.447 13.845C110.447 12.985 110.622 12.23 110.972 11.58C111.322 10.93 111.812 10.43 112.442 10.08C113.072 9.73 113.797 9.555 114.617 9.555C115.407 9.555 116.112 9.725 116.732 10.065C117.362 10.405 117.847 10.89 118.187 11.52C118.537 12.14 118.712 12.855 118.712 13.665ZM116.537 13.065C116.527 12.525 116.332 12.095 115.952 11.775C115.572 11.445 115.107 11.28 114.557 11.28C114.037 11.28 113.597 11.44 113.237 11.76C112.887 12.07 112.672 12.505 112.592 13.065H116.537ZM123.425 18.135C122.745 18.135 122.135 18.015 121.595 17.775C121.055 17.525 120.625 17.19 120.305 16.77C119.995 16.35 119.825 15.885 119.795 15.375H121.91C121.95 15.695 122.105 15.96 122.375 16.17C122.655 16.38 123 16.485 123.41 16.485C123.81 16.485 124.12 16.405 124.34 16.245C124.57 16.085 124.685 15.88 124.685 15.63C124.685 15.36 124.545 15.16 124.265 15.03C123.995 14.89 123.56 14.74 122.96 14.58C122.34 14.43 121.83 14.275 121.43 14.115C121.04 13.955 120.7 13.71 120.41 13.38C120.13 13.05 119.99 12.605 119.99 12.045C119.99 11.585 120.12 11.165 120.38 10.785C120.65 10.405 121.03 10.105 121.52 9.885C122.02 9.665 122.605 9.555 123.275 9.555C124.265 9.555 125.055 9.805 125.645 10.305C126.235 10.795 126.56 11.46 126.62 12.3H124.61C124.58 11.97 124.44 11.71 124.19 11.52C123.95 11.32 123.625 11.22 123.215 11.22C122.835 11.22 122.54 11.29 122.33 11.43C122.13 11.57 122.03 11.765 122.03 12.015C122.03 12.295 122.17 12.51 122.45 12.66C122.73 12.8 123.165 12.945 123.755 13.095C124.355 13.245 124.85 13.4 125.24 13.56C125.63 13.72 125.965 13.97 126.245 14.31C126.535 14.64 126.685 15.08 126.695 15.63C126.695 16.11 126.56 16.54 126.29 16.92C126.03 17.3 125.65 17.6 125.15 17.82C124.66 18.03 124.085 18.135 123.425 18.135ZM129.484 8.7C129.114 8.7 128.804 8.585 128.554 8.355C128.314 8.115 128.194 7.82 128.194 7.47C128.194 7.12 128.314 6.83 128.554 6.6C128.804 6.36 129.114 6.24 129.484 6.24C129.854 6.24 130.159 6.36 130.399 6.6C130.649 6.83 130.774 7.12 130.774 7.47C130.774 7.82 130.649 8.115 130.399 8.355C130.159 8.585 129.854 8.7 129.484 8.7ZM130.519 9.69V18H128.419V9.69H130.519ZM135.849 9.555C136.469 9.555 137.014 9.68 137.484 9.93C137.954 10.17 138.324 10.485 138.594 10.875V9.69H140.709V18.06C140.709 18.83 140.554 19.515 140.244 20.115C139.934 20.725 139.469 21.205 138.849 21.555C138.229 21.915 137.479 22.095 136.599 22.095C135.419 22.095 134.449 21.82 133.689 21.27C132.939 20.72 132.514 19.97 132.414 19.02H134.499C134.609 19.4 134.844 19.7 135.204 19.92C135.574 20.15 136.019 20.265 136.539 20.265C137.149 20.265 137.644 20.08 138.024 19.71C138.404 19.35 138.594 18.8 138.594 18.06V16.77C138.324 17.16 137.949 17.485 137.469 17.745C136.999 18.005 136.459 18.135 135.849 18.135C135.149 18.135 134.509 17.955 133.929 17.595C133.349 17.235 132.889 16.73 132.549 16.08C132.219 15.42 132.054 14.665 132.054 13.815C132.054 12.975 132.219 12.23 132.549 11.58C132.889 10.93 133.344 10.43 133.914 10.08C134.494 9.73 135.139 9.555 135.849 9.555ZM138.594 13.845C138.594 13.335 138.494 12.9 138.294 12.54C138.094 12.17 137.824 11.89 137.484 11.7C137.144 11.5 136.779 11.4 136.389 11.4C135.999 11.4 135.639 11.495 135.309 11.685C134.979 11.875 134.709 12.155 134.499 12.525C134.299 12.885 134.199 13.315 134.199 13.815C134.199 14.315 134.299 14.755 134.499 15.135C134.709 15.505 134.979 15.79 135.309 15.99C135.649 16.19 136.009 16.29 136.389 16.29C136.779 16.29 137.144 16.195 137.484 16.005C137.824 15.805 138.094 15.525 138.294 15.165C138.494 14.795 138.594 14.355 138.594 13.845ZM147.365 9.57C148.355 9.57 149.155 9.885 149.765 10.515C150.375 11.135 150.68 12.005 150.68 13.125V18H148.58V13.41C148.58 12.75 148.415 12.245 148.085 11.895C147.755 11.535 147.305 11.355 146.735 11.355C146.155 11.355 145.695 11.535 145.355 11.895C145.025 12.245 144.86 12.75 144.86 13.41V18H142.76V9.69H144.86V10.725C145.14 10.365 145.495 10.085 145.925 9.885C146.365 9.675 146.845 9.57 147.365 9.57ZM160.402 13.665C160.402 13.965 160.382 14.235 160.342 14.475H154.267C154.317 15.075 154.527 15.545 154.897 15.885C155.267 16.225 155.722 16.395 156.262 16.395C157.042 16.395 157.597 16.06 157.927 15.39H160.192C159.952 16.19 159.492 16.85 158.812 17.37C158.132 17.88 157.297 18.135 156.307 18.135C155.507 18.135 154.787 17.96 154.147 17.61C153.517 17.25 153.022 16.745 152.662 16.095C152.312 15.445 152.137 14.695 152.137 13.845C152.137 12.985 152.312 12.23 152.662 11.58C153.012 10.93 153.502 10.43 154.132 10.08C154.762 9.73 155.487 9.555 156.307 9.555C157.097 9.555 157.802 9.725 158.422 10.065C159.052 10.405 159.537 10.89 159.877 11.52C160.227 12.14 160.402 12.855 160.402 13.665ZM158.227 13.065C158.217 12.525 158.022 12.095 157.642 11.775C157.262 11.445 156.797 11.28 156.247 11.28C155.727 11.28 155.287 11.44 154.927 11.76C154.577 12.07 154.362 12.505 154.282 13.065H158.227ZM164.034 10.98C164.304 10.54 164.654 10.195 165.084 9.945C165.524 9.695 166.024 9.57 166.584 9.57V11.775H166.029C165.369 11.775 164.869 11.93 164.529 12.24C164.199 12.55 164.034 13.09 164.034 13.86V18H161.934V9.69H164.034V10.98Z" fill="black"/>
<path d="M12.5 21.8094C12.3013 21.8111 12.1057 21.7597 11.9335 21.6604C11.7614 21.5611 11.6189 21.4176 11.5208 21.2448L10.0104 18.6458C10.0009 18.6276 9.98517 18.6133 9.96611 18.6055C9.94706 18.5977 9.92586 18.5968 9.90625 18.6031L7.00833 19.375C6.81692 19.4254 6.61564 19.4248 6.42456 19.3731C6.23347 19.3215 6.05927 19.2207 5.9193 19.0807C5.77934 18.9407 5.67851 18.7665 5.62687 18.5754C5.57523 18.3844 5.57459 18.1831 5.625 17.9917L6.40417 15.075C6.40929 15.0554 6.40789 15.0346 6.40019 15.0158C6.39249 14.997 6.3789 14.9812 6.36146 14.9708L3.75729 13.4719C3.58532 13.3726 3.44252 13.2298 3.34323 13.0578C3.24394 12.8858 3.19167 12.6908 3.19167 12.4922C3.19167 12.2936 3.24394 12.0985 3.34323 11.9266C3.44252 11.7546 3.58532 11.6118 3.75729 11.5125L6.35417 10.0104C6.3716 10 6.3852 9.98424 6.3929 9.96546C6.4006 9.94667 6.402 9.9259 6.39688 9.90625L5.625 7.00833C5.57459 6.81692 5.57523 6.61564 5.62687 6.42456C5.67851 6.23347 5.77934 6.05926 5.9193 5.9193C6.05927 5.77934 6.23347 5.67851 6.42456 5.62687C6.61564 5.57523 6.81692 5.57459 7.00833 5.625L9.925 6.40417C9.94465 6.40929 9.96542 6.40789 9.98421 6.40019C10.003 6.39249 10.0188 6.3789 10.0292 6.36146L11.5281 3.75729C11.6261 3.58585 11.7675 3.44322 11.9381 3.34375C12.1087 3.24428 12.3025 3.19147 12.5 3.19062C12.6987 3.18889 12.8943 3.24032 13.0665 3.33959C13.2386 3.43886 13.3811 3.58235 13.4792 3.75521L14.9896 6.35417C14.9991 6.3724 15.0148 6.38669 15.0339 6.3945C15.0529 6.40231 15.0741 6.40315 15.0938 6.39687L17.9917 5.625C18.1831 5.57459 18.3844 5.57523 18.5754 5.62687C18.7665 5.67851 18.9407 5.77934 19.0807 5.9193C19.2207 6.05926 19.3215 6.23347 19.3731 6.42456C19.4248 6.61564 19.4254 6.81692 19.375 7.00833L18.5958 9.925C18.5907 9.94465 18.5921 9.96542 18.5998 9.98421C18.6075 10.003 18.6211 10.0188 18.6385 10.0292L21.2427 11.5281C21.4147 11.6274 21.5575 11.7702 21.6568 11.9422C21.7561 12.1142 21.8083 12.3092 21.8083 12.5078C21.8083 12.7064 21.7561 12.9015 21.6568 13.0734C21.5575 13.2454 21.4147 13.3882 21.2427 13.4875L18.6458 14.9896C18.6284 15 18.6148 15.0158 18.6071 15.0345C18.5994 15.0533 18.598 15.0741 18.6031 15.0937L19.3823 17.9937C19.4328 18.1858 19.432 18.3877 19.3799 18.5793C19.3277 18.7709 19.2261 18.9454 19.0852 19.0853C18.9444 19.2253 18.7692 19.3257 18.5772 19.3765C18.3853 19.4274 18.1833 19.4268 17.9917 19.375L15.075 18.5958C15.0554 18.5907 15.0346 18.5921 15.0158 18.5998C14.997 18.6075 14.9812 18.6211 14.9708 18.6385L13.4719 21.2427C13.3733 21.4152 13.2307 21.5585 13.0587 21.6581C12.8867 21.7576 12.6914 21.8098 12.4927 21.8094H12.5ZM9.93125 17.5552C10.1298 17.5551 10.3249 17.6071 10.4971 17.706C10.6693 17.8049 10.8125 17.9472 10.9125 18.1187L12.4208 20.7229C12.4282 20.7371 12.4395 20.7488 12.4533 20.7568C12.4672 20.7647 12.483 20.7685 12.499 20.7677C12.5147 20.7683 12.5303 20.7644 12.544 20.7565C12.5576 20.7486 12.5688 20.7369 12.576 20.7229L14.076 18.1187C14.1996 17.9023 14.3915 17.7329 14.6217 17.6373C14.8519 17.5417 15.1074 17.5253 15.3479 17.5906L18.2646 18.3687C18.2799 18.3727 18.2959 18.3726 18.3111 18.3684C18.3263 18.3643 18.3402 18.3562 18.3513 18.3451C18.3625 18.3339 18.3705 18.3201 18.3747 18.3049C18.3788 18.2896 18.3789 18.2736 18.375 18.2583L17.5969 15.3573C17.5325 15.1174 17.5486 14.8629 17.6426 14.633C17.7367 14.4031 17.9036 14.2104 18.1177 14.0844L20.7219 12.576C20.7358 12.5683 20.7473 12.5569 20.7553 12.5432C20.7634 12.5295 20.7676 12.5138 20.7676 12.4979C20.7676 12.482 20.7634 12.4664 20.7553 12.4526C20.7473 12.4389 20.7358 12.4276 20.7219 12.4198L18.1177 10.9208C17.902 10.7965 17.7333 10.6045 17.6378 10.3745C17.5423 10.1446 17.5254 9.88953 17.5896 9.64896L18.3677 6.73229C18.3725 6.71719 18.3729 6.70104 18.3688 6.68573C18.3648 6.67041 18.3564 6.65658 18.3448 6.64583C18.3333 6.63459 18.3192 6.62648 18.3037 6.62229C18.2881 6.61809 18.2718 6.61795 18.2562 6.62187L15.3563 7.4C15.1163 7.4644 14.8619 7.44832 14.632 7.35425C14.402 7.26017 14.2093 7.09328 14.0833 6.87917L12.575 4.275C12.5676 4.26171 12.5567 4.25071 12.5435 4.24318C12.5302 4.23565 12.5152 4.23189 12.5 4.23229C12.4842 4.23169 12.4686 4.23558 12.455 4.24351C12.4413 4.25144 12.4302 4.26308 12.4229 4.27708L10.9229 6.88125C10.798 7.09669 10.6058 7.26509 10.3757 7.36052C10.1457 7.45595 9.89073 7.47312 9.65 7.40937L6.73333 6.63125C6.71806 6.6273 6.70203 6.62741 6.68681 6.63156C6.6716 6.63571 6.65773 6.64376 6.64658 6.65491C6.63543 6.66606 6.62738 6.67993 6.62323 6.69515C6.61908 6.71036 6.61897 6.7264 6.62292 6.74167L7.40625 9.63958C7.47065 9.87952 7.45457 10.134 7.3605 10.3639C7.26642 10.5938 7.09953 10.7865 6.88542 10.9125L4.28125 12.4208C4.26614 12.4277 4.25341 12.4388 4.24469 12.4529C4.23597 12.467 4.23165 12.4834 4.23229 12.5C4.23169 12.5158 4.23558 12.5314 4.24351 12.545C4.25144 12.5587 4.26308 12.5698 4.27708 12.5771L6.88125 14.0771C7.09648 14.2019 7.26474 14.394 7.36016 14.6238C7.45557 14.8536 7.47287 15.1084 7.40938 15.349L6.63125 18.2656C6.62646 18.2807 6.62607 18.2969 6.63013 18.3122C6.63418 18.3275 6.64252 18.3413 6.65417 18.3521C6.66564 18.3633 6.6798 18.3714 6.69531 18.3756C6.71081 18.3798 6.72713 18.38 6.74271 18.376L9.64271 17.5979C9.73641 17.5702 9.83354 17.5558 9.93125 17.5552Z" fill="black"/>
<path d="M12.5 16.5365C11.7017 16.5365 10.9213 16.2997 10.2575 15.8562C9.59367 15.4127 9.07631 14.7823 8.7708 14.0447C8.46529 13.3071 8.38535 12.4955 8.5411 11.7125C8.69685 10.9295 9.08128 10.2103 9.64579 9.64579C10.2103 9.08128 10.9295 8.69685 11.7125 8.5411C12.4955 8.38535 13.3071 8.46529 14.0447 8.7708C14.7823 9.07631 15.4127 9.59367 15.8562 10.2575C16.2997 10.9213 16.5365 11.7017 16.5365 12.5C16.5351 13.5701 16.1094 14.596 15.3527 15.3527C14.596 16.1094 13.5701 16.5351 12.5 16.5365ZM12.5 9.50521C11.9077 9.50521 11.3287 9.68085 10.8362 10.0099C10.3437 10.339 9.95984 10.8067 9.73317 11.3539C9.5065 11.9012 9.4472 12.5033 9.56275 13.0843C9.67831 13.6652 9.96353 14.1988 10.3824 14.6176C10.8012 15.0365 11.3348 15.3217 11.9157 15.4372C12.4967 15.5528 13.0988 15.4935 13.6461 15.2668C14.1933 15.0402 14.661 14.6563 14.9901 14.1638C15.3192 13.6713 15.4948 13.0923 15.4948 12.5C15.4934 11.7062 15.1775 10.9452 14.6161 10.3839C14.0548 9.82255 13.2938 9.50658 12.5 9.50521Z" fill="black"/>
</svg>
