<svg width="86" height="25" viewBox="0 0 86 25" fill="none" xmlns="http://www.w3.org/2000/svg">
<circle cx="12" cy="13" r="12" fill="#8720DF"/>
<path d="M11.495 8.525V10.655H14.93V12.635H11.495V14.945H15.38V17H8.93V6.47H15.38V8.525H11.495ZM16.5352 12.8C16.5352 11.94 16.6952 11.185 17.0152 10.535C17.3452 9.885 17.7902 9.385 18.3502 9.035C18.9102 8.685 19.5352 8.51 20.2252 8.51C20.7752 8.51 21.2752 8.625 21.7252 8.855C22.1852 9.085 22.5452 9.395 22.8052 9.785V5.9H25.3702V17H22.8052V15.8C22.5652 16.2 22.2202 16.52 21.7702 16.76C21.3302 17 20.8152 17.12 20.2252 17.12C19.5352 17.12 18.9102 16.945 18.3502 16.595C17.7902 16.235 17.3452 15.73 17.0152 15.08C16.6952 14.42 16.5352 13.66 16.5352 12.8ZM22.8052 12.815C22.8052 12.175 22.6252 11.67 22.2652 11.3C21.9152 10.93 21.4852 10.745 20.9752 10.745C20.4652 10.745 20.0302 10.93 19.6702 11.3C19.3202 11.66 19.1452 12.16 19.1452 12.8C19.1452 13.44 19.3202 13.95 19.6702 14.33C20.0302 14.7 20.4652 14.885 20.9752 14.885C21.4852 14.885 21.9152 14.7 22.2652 14.33C22.6252 13.96 22.8052 13.455 22.8052 12.815ZM35.4909 8.63V17H32.9259V15.86C32.6659 16.23 32.3109 16.53 31.8609 16.76C31.4209 16.98 30.9309 17.09 30.3909 17.09C29.7509 17.09 29.1859 16.95 28.6959 16.67C28.2059 16.38 27.8259 15.965 27.5559 15.425C27.2859 14.885 27.1509 14.25 27.1509 13.52V8.63H29.7009V13.175C29.7009 13.735 29.8459 14.17 30.1359 14.48C30.4259 14.79 30.8159 14.945 31.3059 14.945C31.8059 14.945 32.2009 14.79 32.4909 14.48C32.7809 14.17 32.9259 13.735 32.9259 13.175V8.63H35.4909ZM36.8233 12.815C36.8233 11.945 36.9983 11.185 37.3483 10.535C37.7083 9.885 38.2033 9.385 38.8333 9.035C39.4733 8.685 40.2033 8.51 41.0233 8.51C42.0733 8.51 42.9483 8.785 43.6483 9.335C44.3583 9.885 44.8233 10.66 45.0433 11.66H42.3133C42.0833 11.02 41.6383 10.7 40.9783 10.7C40.5083 10.7 40.1333 10.885 39.8533 11.255C39.5733 11.615 39.4333 12.135 39.4333 12.815C39.4333 13.495 39.5733 14.02 39.8533 14.39C40.1333 14.75 40.5083 14.93 40.9783 14.93C41.6383 14.93 42.0833 14.61 42.3133 13.97H45.0433C44.8233 14.95 44.3583 15.72 43.6483 16.28C42.9383 16.84 42.0633 17.12 41.0233 17.12C40.2033 17.12 39.4733 16.945 38.8333 16.595C38.2033 16.245 37.7083 15.745 37.3483 15.095C36.9983 14.445 36.8233 13.685 36.8233 12.815ZM45.9054 12.8C45.9054 11.94 46.0654 11.185 46.3854 10.535C46.7154 9.885 47.1604 9.385 47.7204 9.035C48.2804 8.685 48.9054 8.51 49.5954 8.51C50.1854 8.51 50.7004 8.63 51.1404 8.87C51.5904 9.11 51.9354 9.425 52.1754 9.815V8.63H54.7404V17H52.1754V15.815C51.9254 16.205 51.5754 16.52 51.1254 16.76C50.6854 17 50.1704 17.12 49.5804 17.12C48.9004 17.12 48.2804 16.945 47.7204 16.595C47.1604 16.235 46.7154 15.73 46.3854 15.08C46.0654 14.42 45.9054 13.66 45.9054 12.8ZM52.1754 12.815C52.1754 12.175 51.9954 11.67 51.6354 11.3C51.2854 10.93 50.8554 10.745 50.3454 10.745C49.8354 10.745 49.4004 10.93 49.0404 11.3C48.6904 11.66 48.5154 12.16 48.5154 12.8C48.5154 13.44 48.6904 13.95 49.0404 14.33C49.4004 14.7 49.8354 14.885 50.3454 14.885C50.8554 14.885 51.2854 14.7 51.6354 14.33C51.9954 13.96 52.1754 13.455 52.1754 12.815ZM61.261 14.825V17H59.956C59.026 17 58.301 16.775 57.781 16.325C57.261 15.865 57.001 15.12 57.001 14.09V10.76H55.981V8.63H57.001V6.59H59.566V8.63H61.246V10.76H59.566V14.12C59.566 14.37 59.626 14.55 59.746 14.66C59.866 14.77 60.066 14.825 60.346 14.825H61.261ZM63.9798 7.76C63.5298 7.76 63.1598 7.63 62.8698 7.37C62.5898 7.1 62.4498 6.77 62.4498 6.38C62.4498 5.98 62.5898 5.65 62.8698 5.39C63.1598 5.12 63.5298 4.985 63.9798 4.985C64.4198 4.985 64.7798 5.12 65.0598 5.39C65.3498 5.65 65.4948 5.98 65.4948 6.38C65.4948 6.77 65.3498 7.1 65.0598 7.37C64.7798 7.63 64.4198 7.76 63.9798 7.76ZM65.2548 8.63V17H62.6898V8.63H65.2548ZM70.9236 17.12C70.1036 17.12 69.3636 16.945 68.7036 16.595C68.0536 16.245 67.5386 15.745 67.1586 15.095C66.7886 14.445 66.6036 13.685 66.6036 12.815C66.6036 11.955 66.7936 11.2 67.1736 10.55C67.5536 9.89 68.0736 9.385 68.7336 9.035C69.3936 8.685 70.1336 8.51 70.9536 8.51C71.7736 8.51 72.5136 8.685 73.1736 9.035C73.8336 9.385 74.3536 9.89 74.7336 10.55C75.1136 11.2 75.3036 11.955 75.3036 12.815C75.3036 13.675 75.1086 14.435 74.7186 15.095C74.3386 15.745 73.8136 16.245 73.1436 16.595C72.4836 16.945 71.7436 17.12 70.9236 17.12ZM70.9236 14.9C71.4136 14.9 71.8286 14.72 72.1686 14.36C72.5186 14 72.6936 13.485 72.6936 12.815C72.6936 12.145 72.5236 11.63 72.1836 11.27C71.8536 10.91 71.4436 10.73 70.9536 10.73C70.4536 10.73 70.0386 10.91 69.7086 11.27C69.3786 11.62 69.2136 12.135 69.2136 12.815C69.2136 13.485 69.3736 14 69.6936 14.36C70.0236 14.72 70.4336 14.9 70.9236 14.9ZM81.7644 8.54C82.7444 8.54 83.5244 8.86 84.1044 9.5C84.6944 10.13 84.9894 11 84.9894 12.11V17H82.4394V12.455C82.4394 11.895 82.2944 11.46 82.0044 11.15C81.7144 10.84 81.3244 10.685 80.8344 10.685C80.3444 10.685 79.9544 10.84 79.6644 11.15C79.3744 11.46 79.2294 11.895 79.2294 12.455V17H76.6644V8.63H79.2294V9.74C79.4894 9.37 79.8394 9.08 80.2794 8.87C80.7194 8.65 81.2144 8.54 81.7644 8.54Z" fill="white"/>
</svg>
