<svg width="180" height="23" viewBox="0 0 180 23" fill="none" xmlns="http://www.w3.org/2000/svg">
<path d="M36.975 11.63C37.565 11.74 38.05 12.035 38.43 12.515C38.81 12.995 39 13.545 39 14.165C39 14.725 38.86 15.22 38.58 15.65C38.31 16.07 37.915 16.4 37.395 16.64C36.875 16.88 36.26 17 35.55 17H31.035V6.53H35.355C36.065 6.53 36.675 6.645 37.185 6.875C37.705 7.105 38.095 7.425 38.355 7.835C38.625 8.245 38.76 8.71 38.76 9.23C38.76 9.84 38.595 10.35 38.265 10.76C37.945 11.17 37.515 11.46 36.975 11.63ZM33.135 10.85H35.055C35.555 10.85 35.94 10.74 36.21 10.52C36.48 10.29 36.615 9.965 36.615 9.545C36.615 9.125 36.48 8.8 36.21 8.57C35.94 8.34 35.555 8.225 35.055 8.225H33.135V10.85ZM35.25 15.29C35.76 15.29 36.155 15.17 36.435 14.93C36.725 14.69 36.87 14.35 36.87 13.91C36.87 13.46 36.72 13.11 36.42 12.86C36.12 12.6 35.715 12.47 35.205 12.47H33.135V15.29H35.25ZM40.1337 12.815C40.1337 11.975 40.2987 11.23 40.6287 10.58C40.9687 9.93 41.4237 9.43 41.9937 9.08C42.5737 8.73 43.2187 8.555 43.9287 8.555C44.5487 8.555 45.0887 8.68 45.5487 8.93C46.0187 9.18 46.3937 9.495 46.6737 9.875V8.69H48.7887V17H46.6737V15.785C46.4037 16.175 46.0287 16.5 45.5487 16.76C45.0787 17.01 44.5337 17.135 43.9137 17.135C43.2137 17.135 42.5737 16.955 41.9937 16.595C41.4237 16.235 40.9687 15.73 40.6287 15.08C40.2987 14.42 40.1337 13.665 40.1337 12.815ZM46.6737 12.845C46.6737 12.335 46.5737 11.9 46.3737 11.54C46.1737 11.17 45.9037 10.89 45.5637 10.7C45.2237 10.5 44.8587 10.4 44.4687 10.4C44.0787 10.4 43.7187 10.495 43.3887 10.685C43.0587 10.875 42.7887 11.155 42.5787 11.525C42.3787 11.885 42.2787 12.315 42.2787 12.815C42.2787 13.315 42.3787 13.755 42.5787 14.135C42.7887 14.505 43.0587 14.79 43.3887 14.99C43.7287 15.19 44.0887 15.29 44.4687 15.29C44.8587 15.29 45.2237 15.195 45.5637 15.005C45.9037 14.805 46.1737 14.525 46.3737 14.165C46.5737 13.795 46.6737 13.355 46.6737 12.845ZM50.2997 12.845C50.2997 11.985 50.4747 11.235 50.8247 10.595C51.1747 9.945 51.6597 9.445 52.2797 9.095C52.8997 8.735 53.6097 8.555 54.4097 8.555C55.4397 8.555 56.2897 8.815 56.9597 9.335C57.6397 9.845 58.0947 10.565 58.3247 11.495H56.0597C55.9397 11.135 55.7347 10.855 55.4447 10.655C55.1647 10.445 54.8147 10.34 54.3947 10.34C53.7947 10.34 53.3197 10.56 52.9697 11C52.6197 11.43 52.4447 12.045 52.4447 12.845C52.4447 13.635 52.6197 14.25 52.9697 14.69C53.3197 15.12 53.7947 15.335 54.3947 15.335C55.2447 15.335 55.7997 14.955 56.0597 14.195H58.3247C58.0947 15.095 57.6397 15.81 56.9597 16.34C56.2797 16.87 55.4297 17.135 54.4097 17.135C53.6097 17.135 52.8997 16.96 52.2797 16.61C51.6597 16.25 51.1747 15.75 50.8247 15.11C50.4747 14.46 50.2997 13.705 50.2997 12.845ZM64.7831 17L61.9631 13.46V17H59.8631V5.9H61.9631V12.215L64.7531 8.69H67.4831L63.8231 12.86L67.5131 17H64.7831ZM74.2971 8.225V10.85H77.8221V12.515H74.2971V15.29H78.2721V17H72.1971V6.515H78.2721V8.225H74.2971ZM84.7855 8.57C85.7755 8.57 86.5755 8.885 87.1855 9.515C87.7955 10.135 88.1005 11.005 88.1005 12.125V17H86.0005V12.41C86.0005 11.75 85.8355 11.245 85.5055 10.895C85.1755 10.535 84.7255 10.355 84.1555 10.355C83.5755 10.355 83.1155 10.535 82.7755 10.895C82.4455 11.245 82.2805 11.75 82.2805 12.41V17H80.1805V8.69H82.2805V9.725C82.5605 9.365 82.9155 9.085 83.3455 8.885C83.7855 8.675 84.2655 8.57 84.7855 8.57ZM89.5575 12.815C89.5575 11.975 89.7225 11.23 90.0525 10.58C90.3925 9.93 90.8525 9.43 91.4325 9.08C92.0125 8.73 92.6575 8.555 93.3675 8.555C93.9075 8.555 94.4225 8.675 94.9125 8.915C95.4025 9.145 95.7925 9.455 96.0825 9.845V5.9H98.2125V17H96.0825V15.77C95.8225 16.18 95.4575 16.51 94.9875 16.76C94.5175 17.01 93.9725 17.135 93.3525 17.135C92.6525 17.135 92.0125 16.955 91.4325 16.595C90.8525 16.235 90.3925 15.73 90.0525 15.08C89.7225 14.42 89.5575 13.665 89.5575 12.815ZM96.0975 12.845C96.0975 12.335 95.9975 11.9 95.7975 11.54C95.5975 11.17 95.3275 10.89 94.9875 10.7C94.6475 10.5 94.2825 10.4 93.8925 10.4C93.5025 10.4 93.1425 10.495 92.8125 10.685C92.4825 10.875 92.2125 11.155 92.0025 11.525C91.8025 11.885 91.7025 12.315 91.7025 12.815C91.7025 13.315 91.8025 13.755 92.0025 14.135C92.2125 14.505 92.4825 14.79 92.8125 14.99C93.1525 15.19 93.5125 15.29 93.8925 15.29C94.2825 15.29 94.6475 15.195 94.9875 15.005C95.3275 14.805 95.5975 14.525 95.7975 14.165C95.9975 13.795 96.0975 13.355 96.0975 12.845ZM103.298 12.815C103.298 11.975 103.463 11.23 103.793 10.58C104.133 9.93 104.593 9.43 105.173 9.08C105.753 8.73 106.398 8.555 107.108 8.555C107.648 8.555 108.163 8.675 108.653 8.915C109.143 9.145 109.533 9.455 109.823 9.845V5.9H111.953V17H109.823V15.77C109.563 16.18 109.198 16.51 108.728 16.76C108.258 17.01 107.713 17.135 107.093 17.135C106.393 17.135 105.753 16.955 105.173 16.595C104.593 16.235 104.133 15.73 103.793 15.08C103.463 14.42 103.298 13.665 103.298 12.815ZM109.838 12.845C109.838 12.335 109.738 11.9 109.538 11.54C109.338 11.17 109.068 10.89 108.728 10.7C108.388 10.5 108.023 10.4 107.633 10.4C107.243 10.4 106.883 10.495 106.553 10.685C106.223 10.875 105.953 11.155 105.743 11.525C105.543 11.885 105.443 12.315 105.443 12.815C105.443 13.315 105.543 13.755 105.743 14.135C105.953 14.505 106.223 14.79 106.553 14.99C106.893 15.19 107.253 15.29 107.633 15.29C108.023 15.29 108.388 15.195 108.728 15.005C109.068 14.805 109.338 14.525 109.538 14.165C109.738 13.795 109.838 13.355 109.838 12.845ZM121.729 12.665C121.729 12.965 121.709 13.235 121.669 13.475H115.594C115.644 14.075 115.854 14.545 116.224 14.885C116.594 15.225 117.049 15.395 117.589 15.395C118.369 15.395 118.924 15.06 119.254 14.39H121.519C121.279 15.19 120.819 15.85 120.139 16.37C119.459 16.88 118.624 17.135 117.634 17.135C116.834 17.135 116.114 16.96 115.474 16.61C114.844 16.25 114.349 15.745 113.989 15.095C113.639 14.445 113.464 13.695 113.464 12.845C113.464 11.985 113.639 11.23 113.989 10.58C114.339 9.93 114.829 9.43 115.459 9.08C116.089 8.73 116.814 8.555 117.634 8.555C118.424 8.555 119.129 8.725 119.749 9.065C120.379 9.405 120.864 9.89 121.204 10.52C121.554 11.14 121.729 11.855 121.729 12.665ZM119.554 12.065C119.544 11.525 119.349 11.095 118.969 10.775C118.589 10.445 118.124 10.28 117.574 10.28C117.054 10.28 116.614 10.44 116.254 10.76C115.904 11.07 115.689 11.505 115.609 12.065H119.554ZM126.727 15.065L128.827 8.69H131.062L127.987 17H125.437L122.377 8.69H124.627L126.727 15.065ZM139.966 12.665C139.966 12.965 139.946 13.235 139.906 13.475H133.831C133.881 14.075 134.091 14.545 134.461 14.885C134.831 15.225 135.286 15.395 135.826 15.395C136.606 15.395 137.161 15.06 137.491 14.39H139.756C139.516 15.19 139.056 15.85 138.376 16.37C137.696 16.88 136.861 17.135 135.871 17.135C135.071 17.135 134.351 16.96 133.711 16.61C133.081 16.25 132.586 15.745 132.226 15.095C131.876 14.445 131.701 13.695 131.701 12.845C131.701 11.985 131.876 11.23 132.226 10.58C132.576 9.93 133.066 9.43 133.696 9.08C134.326 8.73 135.051 8.555 135.871 8.555C136.661 8.555 137.366 8.725 137.986 9.065C138.616 9.405 139.101 9.89 139.441 10.52C139.791 11.14 139.966 11.855 139.966 12.665ZM137.791 12.065C137.781 11.525 137.586 11.095 137.206 10.775C136.826 10.445 136.361 10.28 135.811 10.28C135.291 10.28 134.851 10.44 134.491 10.76C134.141 11.07 133.926 11.505 133.846 12.065H137.791ZM143.599 5.9V17H141.499V5.9H143.599ZM149.364 17.135C148.564 17.135 147.844 16.96 147.204 16.61C146.564 16.25 146.059 15.745 145.689 15.095C145.329 14.445 145.149 13.695 145.149 12.845C145.149 11.995 145.334 11.245 145.704 10.595C146.084 9.945 146.599 9.445 147.249 9.095C147.899 8.735 148.624 8.555 149.424 8.555C150.224 8.555 150.949 8.735 151.599 9.095C152.249 9.445 152.759 9.945 153.129 10.595C153.509 11.245 153.699 11.995 153.699 12.845C153.699 13.695 153.504 14.445 153.114 15.095C152.734 15.745 152.214 16.25 151.554 16.61C150.904 16.96 150.174 17.135 149.364 17.135ZM149.364 15.305C149.744 15.305 150.099 15.215 150.429 15.035C150.769 14.845 151.039 14.565 151.239 14.195C151.439 13.825 151.539 13.375 151.539 12.845C151.539 12.055 151.329 11.45 150.909 11.03C150.499 10.6 149.994 10.385 149.394 10.385C148.794 10.385 148.289 10.6 147.879 11.03C147.479 11.45 147.279 12.055 147.279 12.845C147.279 13.635 147.474 14.245 147.864 14.675C148.264 15.095 148.764 15.305 149.364 15.305ZM157.339 9.89C157.609 9.51 157.979 9.195 158.449 8.945C158.929 8.685 159.474 8.555 160.084 8.555C160.794 8.555 161.434 8.73 162.004 9.08C162.584 9.43 163.039 9.93 163.369 10.58C163.709 11.22 163.879 11.965 163.879 12.815C163.879 13.665 163.709 14.42 163.369 15.08C163.039 15.73 162.584 16.235 162.004 16.595C161.434 16.955 160.794 17.135 160.084 17.135C159.474 17.135 158.934 17.01 158.464 16.76C158.004 16.51 157.629 16.195 157.339 15.815V20.96H155.239V8.69H157.339V9.89ZM161.734 12.815C161.734 12.315 161.629 11.885 161.419 11.525C161.219 11.155 160.949 10.875 160.609 10.685C160.279 10.495 159.919 10.4 159.529 10.4C159.149 10.4 158.789 10.5 158.449 10.7C158.119 10.89 157.849 11.17 157.639 11.54C157.439 11.91 157.339 12.345 157.339 12.845C157.339 13.345 157.439 13.78 157.639 14.15C157.849 14.52 158.119 14.805 158.449 15.005C158.789 15.195 159.149 15.29 159.529 15.29C159.919 15.29 160.279 15.19 160.609 14.99C160.949 14.79 161.219 14.505 161.419 14.135C161.629 13.765 161.734 13.325 161.734 12.815ZM173.13 12.665C173.13 12.965 173.11 13.235 173.07 13.475H166.995C167.045 14.075 167.255 14.545 167.625 14.885C167.995 15.225 168.45 15.395 168.99 15.395C169.77 15.395 170.325 15.06 170.655 14.39H172.92C172.68 15.19 172.22 15.85 171.54 16.37C170.86 16.88 170.025 17.135 169.035 17.135C168.235 17.135 167.515 16.96 166.875 16.61C166.245 16.25 165.75 15.745 165.39 15.095C165.04 14.445 164.865 13.695 164.865 12.845C164.865 11.985 165.04 11.23 165.39 10.58C165.74 9.93 166.23 9.43 166.86 9.08C167.49 8.73 168.215 8.555 169.035 8.555C169.825 8.555 170.53 8.725 171.15 9.065C171.78 9.405 172.265 9.89 172.605 10.52C172.955 11.14 173.13 11.855 173.13 12.665ZM170.955 12.065C170.945 11.525 170.75 11.095 170.37 10.775C169.99 10.445 169.525 10.28 168.975 10.28C168.455 10.28 168.015 10.44 167.655 10.76C167.305 11.07 167.09 11.505 167.01 12.065H170.955ZM176.763 9.98C177.033 9.54 177.383 9.195 177.813 8.945C178.253 8.695 178.753 8.57 179.313 8.57V10.775H178.758C178.098 10.775 177.598 10.93 177.258 11.24C176.928 11.55 176.763 12.09 176.763 12.86V17H174.663V8.69H176.763V9.98Z" fill="black"/>
<path d="M10.5 20.3199C10.3331 20.3213 10.1688 20.2781 10.0242 20.1947C9.87955 20.1114 9.75986 19.9908 9.67749 19.8456L8.40874 17.6625C8.40071 17.6472 8.38754 17.6352 8.37153 17.6286C8.35553 17.6221 8.33772 17.6214 8.32124 17.6266L5.88699 18.275C5.72621 18.3173 5.55713 18.3168 5.39662 18.2734C5.23611 18.2301 5.08978 18.1454 4.97221 18.0278C4.85464 17.9102 4.76994 17.7639 4.72657 17.6034C4.68319 17.4429 4.68265 17.2738 4.72499 17.113L5.37949 14.663C5.3838 14.6465 5.38262 14.629 5.37615 14.6133C5.36968 14.5975 5.35827 14.5842 5.34362 14.5755L3.15612 13.3164C3.01166 13.233 2.89171 13.113 2.80831 12.9686C2.72491 12.8241 2.681 12.6602 2.681 12.4934C2.681 12.3266 2.72491 12.1628 2.80831 12.0183C2.89171 11.8739 3.01166 11.7539 3.15612 11.6705L5.33749 10.4088C5.35214 10.4 5.36356 10.3868 5.37003 10.371C5.3765 10.3552 5.37767 10.3378 5.37337 10.3213L4.72499 7.887C4.68265 7.72622 4.68319 7.55714 4.72657 7.39663C4.76994 7.23612 4.85464 7.08978 4.97221 6.97221C5.08978 6.85464 5.23611 6.76995 5.39662 6.72657C5.55713 6.6832 5.72621 6.68265 5.88699 6.725L8.33699 7.3795C8.3535 7.3838 8.37095 7.38263 8.38673 7.37616C8.40251 7.36969 8.41576 7.35827 8.42449 7.34363L9.68362 5.15613C9.76595 5.01211 9.88473 4.89231 10.028 4.80875C10.1713 4.7252 10.3341 4.68083 10.5 4.68013C10.6669 4.67867 10.8312 4.72187 10.9758 4.80526C11.1204 4.88864 11.2401 5.00918 11.3225 5.15438L12.5912 7.3375C12.5993 7.35282 12.6125 7.36482 12.6285 7.37138C12.6445 7.37794 12.6623 7.37865 12.6787 7.37338L15.113 6.725C15.2738 6.68265 15.4429 6.6832 15.6034 6.72657C15.7639 6.76995 15.9102 6.85464 16.0278 6.97221C16.1453 7.08978 16.23 7.23612 16.2734 7.39663C16.3168 7.55714 16.3173 7.72622 16.275 7.887L15.6205 10.337C15.6162 10.3535 15.6174 10.371 15.6238 10.3867C15.6303 10.4025 15.6417 10.4158 15.6564 10.4245L17.8439 11.6836C17.9883 11.767 18.1083 11.887 18.1917 12.0314C18.2751 12.1759 18.319 12.3398 18.319 12.5066C18.319 12.6734 18.2751 12.8372 18.1917 12.9817C18.1083 13.1261 17.9883 13.2461 17.8439 13.3295L15.6625 14.5913C15.6478 14.6 15.6364 14.6132 15.63 14.629C15.6235 14.6448 15.6223 14.6622 15.6266 14.6788L16.2811 17.1147C16.3236 17.276 16.3229 17.4457 16.2791 17.6066C16.2353 17.7676 16.1499 17.9141 16.0316 18.0317C15.9133 18.1492 15.7661 18.2336 15.6049 18.2763C15.4436 18.319 15.274 18.3185 15.113 18.275L12.663 17.6205C12.6465 17.6162 12.629 17.6174 12.6133 17.6238C12.5975 17.6303 12.5842 17.6417 12.5755 17.6564L11.3164 19.8439C11.2335 19.9888 11.1138 20.1092 10.9693 20.1928C10.8248 20.2764 10.6608 20.3202 10.4939 20.3199H10.5ZM8.34224 16.7464C8.50903 16.7463 8.67291 16.79 8.81754 16.8731C8.96217 16.9561 9.08249 17.0757 9.16649 17.2197L10.4335 19.4072C10.4397 19.4191 10.4492 19.429 10.4608 19.4357C10.4724 19.4424 10.4857 19.4455 10.4991 19.4449C10.5124 19.4454 10.5255 19.4421 10.5369 19.4354C10.5484 19.4288 10.5577 19.419 10.5639 19.4072L11.8239 17.2197C11.9276 17.0379 12.0889 16.8957 12.2822 16.8154C12.4756 16.7351 12.6902 16.7213 12.8922 16.7761L15.3422 17.4298C15.3551 17.4331 15.3685 17.433 15.3813 17.4295C15.3941 17.426 15.4058 17.4192 15.4151 17.4099C15.4245 17.4005 15.4312 17.3889 15.4347 17.3761C15.4382 17.3633 15.4383 17.3498 15.435 17.337L14.7814 14.9001C14.7273 14.6986 14.7408 14.4849 14.8198 14.2917C14.8988 14.0986 15.039 13.9367 15.2189 13.8309L17.4064 12.5639C17.418 12.5573 17.4277 12.5478 17.4345 12.5363C17.4412 12.5247 17.4448 12.5116 17.4448 12.4983C17.4448 12.4849 17.4412 12.4718 17.4345 12.4602C17.4277 12.4487 17.418 12.4392 17.4064 12.4326L15.2189 11.1735C15.0377 11.0691 14.896 10.9078 14.8158 10.7146C14.7355 10.5214 14.7213 10.3072 14.7752 10.1051L15.4289 7.65513C15.4329 7.64244 15.4332 7.62887 15.4298 7.61601C15.4264 7.60315 15.4194 7.59152 15.4096 7.5825C15.4 7.57306 15.3881 7.56624 15.3751 7.56272C15.362 7.5592 15.3483 7.55908 15.3352 7.56238L12.8992 8.216C12.6977 8.27009 12.484 8.25659 12.2908 8.17757C12.0977 8.09854 11.9358 7.95836 11.83 7.7785L10.563 5.591C10.5568 5.57984 10.5476 5.5706 10.5365 5.56427C10.5254 5.55795 10.5128 5.55478 10.5 5.55513C10.4867 5.55462 10.4736 5.55789 10.4622 5.56455C10.4507 5.57121 10.4414 5.58099 10.4352 5.59275L9.17524 7.78025C9.07033 7.96122 8.90883 8.10268 8.71562 8.18284C8.52241 8.263 8.30821 8.27742 8.10599 8.22388L5.65599 7.57025C5.64317 7.56694 5.6297 7.56703 5.61692 7.57051C5.60414 7.574 5.59249 7.58076 5.58312 7.59013C5.57375 7.59949 5.56699 7.61114 5.56351 7.62392C5.56002 7.63671 5.55993 7.65017 5.56324 7.663L6.22124 10.0973C6.27534 10.2988 6.26184 10.5125 6.18281 10.7057C6.10379 10.8988 5.9636 11.0607 5.78374 11.1665L3.59624 12.4335C3.58355 12.4392 3.57286 12.4486 3.56553 12.4605C3.55821 12.4723 3.55458 12.4861 3.55512 12.5C3.55462 12.5132 3.55788 12.5264 3.56454 12.5378C3.57121 12.5493 3.58098 12.5586 3.59274 12.5648L5.78024 13.8247C5.96104 13.9296 6.10237 14.091 6.18253 14.284C6.26268 14.477 6.2772 14.691 6.22387 14.8931L5.57024 17.3431C5.56622 17.3558 5.56589 17.3694 5.5693 17.3822C5.57271 17.3951 5.57971 17.4067 5.58949 17.4158C5.59913 17.4252 5.61103 17.432 5.62405 17.4355C5.63708 17.4391 5.65079 17.4392 5.66387 17.4359L8.09987 16.7822C8.17858 16.759 8.26017 16.7469 8.34224 16.7464Z" fill="black"/>
<path d="M10.5 15.8906C9.8294 15.8906 9.17386 15.6918 8.61627 15.3192C8.05869 14.9466 7.6241 14.4171 7.36747 13.7975C7.11084 13.178 7.0437 12.4962 7.17453 11.8385C7.30535 11.1808 7.62828 10.5767 8.10247 10.1025C8.57665 9.62828 9.18081 9.30535 9.83852 9.17452C10.4962 9.0437 11.178 9.11084 11.7975 9.36747C12.4171 9.6241 12.9466 10.0587 13.3192 10.6163C13.6918 11.1739 13.8906 11.8294 13.8906 12.5C13.8895 13.3989 13.5319 14.2606 12.8963 14.8963C12.2606 15.5319 11.3989 15.8895 10.5 15.8906ZM10.5 9.98437C10.0025 9.98437 9.51609 10.1319 9.1024 10.4083C8.6887 10.6848 8.36627 11.0776 8.17587 11.5373C7.98547 11.997 7.93565 12.5028 8.03271 12.9908C8.12978 13.4788 8.36937 13.927 8.72119 14.2788C9.073 14.6306 9.52124 14.8702 10.0092 14.9673C10.4972 15.0644 11.003 15.0145 11.4627 14.8241C11.9224 14.6337 12.3152 14.3113 12.5917 13.8976C12.8681 13.4839 13.0156 12.9975 13.0156 12.5C13.0145 11.8332 12.7491 11.194 12.2775 10.7225C11.806 10.2509 11.1668 9.98553 10.5 9.98437Z" fill="black"/>
</svg>
