<svg width="192" height="25" viewBox="0 0 192 25" fill="none" xmlns="http://www.w3.org/2000/svg">
<path d="M47.5 7.53V9.225H43.135V11.91H46.48V13.575H43.135V18H41.035V7.53H47.5ZM51.0891 10.98C51.3591 10.54 51.7091 10.195 52.1391 9.945C52.5791 9.695 53.0791 9.57 53.6391 9.57V11.775H53.0841C52.4241 11.775 51.9241 11.93 51.5841 12.24C51.2541 12.55 51.0891 13.09 51.0891 13.86V18H48.9891V9.69H51.0891V10.98ZM58.7436 18.135C57.9436 18.135 57.2236 17.96 56.5836 17.61C55.9436 17.25 55.4386 16.745 55.0686 16.095C54.7086 15.445 54.5286 14.695 54.5286 13.845C54.5286 12.995 54.7136 12.245 55.0836 11.595C55.4636 10.945 55.9786 10.445 56.6286 10.095C57.2786 9.735 58.0036 9.555 58.8036 9.555C59.6036 9.555 60.3286 9.735 60.9786 10.095C61.6286 10.445 62.1386 10.945 62.5086 11.595C62.8886 12.245 63.0786 12.995 63.0786 13.845C63.0786 14.695 62.8836 15.445 62.4936 16.095C62.1136 16.745 61.5936 17.25 60.9336 17.61C60.2836 17.96 59.5536 18.135 58.7436 18.135ZM58.7436 16.305C59.1236 16.305 59.4786 16.215 59.8086 16.035C60.1486 15.845 60.4186 15.565 60.6186 15.195C60.8186 14.825 60.9186 14.375 60.9186 13.845C60.9186 13.055 60.7086 12.45 60.2886 12.03C59.8786 11.6 59.3736 11.385 58.7736 11.385C58.1736 11.385 57.6686 11.6 57.2586 12.03C56.8586 12.45 56.6586 13.055 56.6586 13.845C56.6586 14.635 56.8536 15.245 57.2436 15.675C57.6436 16.095 58.1436 16.305 58.7436 16.305ZM69.224 9.57C70.214 9.57 71.014 9.885 71.624 10.515C72.234 11.135 72.539 12.005 72.539 13.125V18H70.439V13.41C70.439 12.75 70.274 12.245 69.944 11.895C69.614 11.535 69.164 11.355 68.594 11.355C68.014 11.355 67.554 11.535 67.214 11.895C66.884 12.245 66.719 12.75 66.719 13.41V18H64.619V9.69H66.719V10.725C66.999 10.365 67.354 10.085 67.784 9.885C68.224 9.675 68.704 9.57 69.224 9.57ZM76.981 11.415V15.435C76.981 15.715 77.046 15.92 77.176 16.05C77.316 16.17 77.546 16.23 77.866 16.23H78.841V18H77.521C75.751 18 74.866 17.14 74.866 15.42V11.415H73.876V9.69H74.866V7.635H76.981V9.69H78.841V11.415H76.981ZM86.0256 9.225V11.85H89.5506V13.515H86.0256V16.29H90.0006V18H83.9256V7.515H90.0006V9.225H86.0256ZM96.514 9.57C97.504 9.57 98.304 9.885 98.914 10.515C99.524 11.135 99.829 12.005 99.829 13.125V18H97.729V13.41C97.729 12.75 97.564 12.245 97.234 11.895C96.904 11.535 96.454 11.355 95.884 11.355C95.304 11.355 94.844 11.535 94.504 11.895C94.174 12.245 94.009 12.75 94.009 13.41V18H91.909V9.69H94.009V10.725C94.289 10.365 94.644 10.085 95.074 9.885C95.514 9.675 95.994 9.57 96.514 9.57ZM101.286 13.815C101.286 12.975 101.451 12.23 101.781 11.58C102.121 10.93 102.581 10.43 103.161 10.08C103.741 9.73 104.386 9.555 105.096 9.555C105.636 9.555 106.151 9.675 106.641 9.915C107.131 10.145 107.521 10.455 107.811 10.845V6.9H109.941V18H107.811V16.77C107.551 17.18 107.186 17.51 106.716 17.76C106.246 18.01 105.701 18.135 105.081 18.135C104.381 18.135 103.741 17.955 103.161 17.595C102.581 17.235 102.121 16.73 101.781 16.08C101.451 15.42 101.286 14.665 101.286 13.815ZM107.826 13.845C107.826 13.335 107.726 12.9 107.526 12.54C107.326 12.17 107.056 11.89 106.716 11.7C106.376 11.5 106.011 11.4 105.621 11.4C105.231 11.4 104.871 11.495 104.541 11.685C104.211 11.875 103.941 12.155 103.731 12.525C103.531 12.885 103.431 13.315 103.431 13.815C103.431 14.315 103.531 14.755 103.731 15.135C103.941 15.505 104.211 15.79 104.541 15.99C104.881 16.19 105.241 16.29 105.621 16.29C106.011 16.29 106.376 16.195 106.716 16.005C107.056 15.805 107.326 15.525 107.526 15.165C107.726 14.795 107.826 14.355 107.826 13.845ZM115.026 13.815C115.026 12.975 115.191 12.23 115.521 11.58C115.861 10.93 116.321 10.43 116.901 10.08C117.481 9.73 118.126 9.555 118.836 9.555C119.376 9.555 119.891 9.675 120.381 9.915C120.871 10.145 121.261 10.455 121.551 10.845V6.9H123.681V18H121.551V16.77C121.291 17.18 120.926 17.51 120.456 17.76C119.986 18.01 119.441 18.135 118.821 18.135C118.121 18.135 117.481 17.955 116.901 17.595C116.321 17.235 115.861 16.73 115.521 16.08C115.191 15.42 115.026 14.665 115.026 13.815ZM121.566 13.845C121.566 13.335 121.466 12.9 121.266 12.54C121.066 12.17 120.796 11.89 120.456 11.7C120.116 11.5 119.751 11.4 119.361 11.4C118.971 11.4 118.611 11.495 118.281 11.685C117.951 11.875 117.681 12.155 117.471 12.525C117.271 12.885 117.171 13.315 117.171 13.815C117.171 14.315 117.271 14.755 117.471 15.135C117.681 15.505 117.951 15.79 118.281 15.99C118.621 16.19 118.981 16.29 119.361 16.29C119.751 16.29 120.116 16.195 120.456 16.005C120.796 15.805 121.066 15.525 121.266 15.165C121.466 14.795 121.566 14.355 121.566 13.845ZM133.457 13.665C133.457 13.965 133.437 14.235 133.397 14.475H127.322C127.372 15.075 127.582 15.545 127.952 15.885C128.322 16.225 128.777 16.395 129.317 16.395C130.097 16.395 130.652 16.06 130.982 15.39H133.247C133.007 16.19 132.547 16.85 131.867 17.37C131.187 17.88 130.352 18.135 129.362 18.135C128.562 18.135 127.842 17.96 127.202 17.61C126.572 17.25 126.077 16.745 125.717 16.095C125.367 15.445 125.192 14.695 125.192 13.845C125.192 12.985 125.367 12.23 125.717 11.58C126.067 10.93 126.557 10.43 127.187 10.08C127.817 9.73 128.542 9.555 129.362 9.555C130.152 9.555 130.857 9.725 131.477 10.065C132.107 10.405 132.592 10.89 132.932 11.52C133.282 12.14 133.457 12.855 133.457 13.665ZM131.282 13.065C131.272 12.525 131.077 12.095 130.697 11.775C130.317 11.445 129.852 11.28 129.302 11.28C128.782 11.28 128.342 11.44 127.982 11.76C127.632 12.07 127.417 12.505 127.337 13.065H131.282ZM138.455 16.065L140.555 9.69H142.79L139.715 18H137.165L134.105 9.69H136.355L138.455 16.065ZM151.695 13.665C151.695 13.965 151.675 14.235 151.635 14.475H145.56C145.61 15.075 145.82 15.545 146.19 15.885C146.56 16.225 147.015 16.395 147.555 16.395C148.335 16.395 148.89 16.06 149.22 15.39H151.485C151.245 16.19 150.785 16.85 150.105 17.37C149.425 17.88 148.59 18.135 147.6 18.135C146.8 18.135 146.08 17.96 145.44 17.61C144.81 17.25 144.315 16.745 143.955 16.095C143.605 15.445 143.43 14.695 143.43 13.845C143.43 12.985 143.605 12.23 143.955 11.58C144.305 10.93 144.795 10.43 145.425 10.08C146.055 9.73 146.78 9.555 147.6 9.555C148.39 9.555 149.095 9.725 149.715 10.065C150.345 10.405 150.83 10.89 151.17 11.52C151.52 12.14 151.695 12.855 151.695 13.665ZM149.52 13.065C149.51 12.525 149.315 12.095 148.935 11.775C148.555 11.445 148.09 11.28 147.54 11.28C147.02 11.28 146.58 11.44 146.22 11.76C145.87 12.07 145.655 12.505 145.575 13.065H149.52ZM155.327 6.9V18H153.227V6.9H155.327ZM161.092 18.135C160.292 18.135 159.572 17.96 158.932 17.61C158.292 17.25 157.787 16.745 157.417 16.095C157.057 15.445 156.877 14.695 156.877 13.845C156.877 12.995 157.062 12.245 157.432 11.595C157.812 10.945 158.327 10.445 158.977 10.095C159.627 9.735 160.352 9.555 161.152 9.555C161.952 9.555 162.677 9.735 163.327 10.095C163.977 10.445 164.487 10.945 164.857 11.595C165.237 12.245 165.427 12.995 165.427 13.845C165.427 14.695 165.232 15.445 164.842 16.095C164.462 16.745 163.942 17.25 163.282 17.61C162.632 17.96 161.902 18.135 161.092 18.135ZM161.092 16.305C161.472 16.305 161.827 16.215 162.157 16.035C162.497 15.845 162.767 15.565 162.967 15.195C163.167 14.825 163.267 14.375 163.267 13.845C163.267 13.055 163.057 12.45 162.637 12.03C162.227 11.6 161.722 11.385 161.122 11.385C160.522 11.385 160.017 11.6 159.607 12.03C159.207 12.45 159.007 13.055 159.007 13.845C159.007 14.635 159.202 15.245 159.592 15.675C159.992 16.095 160.492 16.305 161.092 16.305ZM169.068 10.89C169.338 10.51 169.708 10.195 170.178 9.945C170.658 9.685 171.203 9.555 171.813 9.555C172.523 9.555 173.163 9.73 173.733 10.08C174.313 10.43 174.768 10.93 175.098 11.58C175.438 12.22 175.608 12.965 175.608 13.815C175.608 14.665 175.438 15.42 175.098 16.08C174.768 16.73 174.313 17.235 173.733 17.595C173.163 17.955 172.523 18.135 171.813 18.135C171.203 18.135 170.663 18.01 170.193 17.76C169.733 17.51 169.358 17.195 169.068 16.815V21.96H166.968V9.69H169.068V10.89ZM173.463 13.815C173.463 13.315 173.358 12.885 173.148 12.525C172.948 12.155 172.678 11.875 172.338 11.685C172.008 11.495 171.648 11.4 171.258 11.4C170.878 11.4 170.518 11.5 170.178 11.7C169.848 11.89 169.578 12.17 169.368 12.54C169.168 12.91 169.068 13.345 169.068 13.845C169.068 14.345 169.168 14.78 169.368 15.15C169.578 15.52 169.848 15.805 170.178 16.005C170.518 16.195 170.878 16.29 171.258 16.29C171.648 16.29 172.008 16.19 172.338 15.99C172.678 15.79 172.948 15.505 173.148 15.135C173.358 14.765 173.463 14.325 173.463 13.815ZM184.859 13.665C184.859 13.965 184.839 14.235 184.799 14.475H178.724C178.774 15.075 178.984 15.545 179.354 15.885C179.724 16.225 180.179 16.395 180.719 16.395C181.499 16.395 182.054 16.06 182.384 15.39H184.649C184.409 16.19 183.949 16.85 183.269 17.37C182.589 17.88 181.754 18.135 180.764 18.135C179.964 18.135 179.244 17.96 178.604 17.61C177.974 17.25 177.479 16.745 177.119 16.095C176.769 15.445 176.594 14.695 176.594 13.845C176.594 12.985 176.769 12.23 177.119 11.58C177.469 10.93 177.959 10.43 178.589 10.08C179.219 9.73 179.944 9.555 180.764 9.555C181.554 9.555 182.259 9.725 182.879 10.065C183.509 10.405 183.994 10.89 184.334 11.52C184.684 12.14 184.859 12.855 184.859 13.665ZM182.684 13.065C182.674 12.525 182.479 12.095 182.099 11.775C181.719 11.445 181.254 11.28 180.704 11.28C180.184 11.28 179.744 11.44 179.384 11.76C179.034 12.07 178.819 12.505 178.739 13.065H182.684ZM188.491 10.98C188.761 10.54 189.111 10.195 189.541 9.945C189.981 9.695 190.481 9.57 191.041 9.57V11.775H190.486C189.826 11.775 189.326 11.93 188.986 12.24C188.656 12.55 188.491 13.09 188.491 13.86V18H186.391V9.69H188.491V10.98Z" fill="black"/>
<path d="M12.5 21.8094C12.3013 21.8111 12.1057 21.7597 11.9336 21.6604C11.7614 21.5611 11.6189 21.4176 11.5208 21.2448L10.0104 18.6458C10.0009 18.6276 9.98518 18.6133 9.96612 18.6055C9.94707 18.5977 9.92587 18.5968 9.90626 18.6031L7.00834 19.375C6.81693 19.4254 6.61565 19.4248 6.42457 19.3731C6.23348 19.3215 6.05927 19.2207 5.91931 19.0807C5.77935 18.9407 5.67852 18.7665 5.62688 18.5754C5.57524 18.3844 5.5746 18.1831 5.62501 17.9917L6.40417 15.075C6.40929 15.0554 6.4079 15.0346 6.4002 15.0158C6.3925 14.997 6.3789 14.9812 6.36147 14.9708L3.7573 13.4719C3.58533 13.3726 3.44252 13.2298 3.34324 13.0578C3.24395 12.8858 3.19168 12.6908 3.19168 12.4922C3.19168 12.2936 3.24395 12.0985 3.34324 11.9266C3.44252 11.7546 3.58533 11.6118 3.7573 11.5125L6.35417 10.0104C6.37161 10 6.3852 9.98424 6.39291 9.96546C6.40061 9.94667 6.402 9.9259 6.39688 9.90625L5.62501 7.00833C5.5746 6.81692 5.57524 6.61564 5.62688 6.42456C5.67852 6.23347 5.77935 6.05926 5.91931 5.9193C6.05927 5.77934 6.23348 5.67851 6.42457 5.62687C6.61565 5.57523 6.81693 5.57459 7.00834 5.625L9.92501 6.40417C9.94465 6.40929 9.96543 6.40789 9.98422 6.40019C10.003 6.39249 10.0188 6.3789 10.0292 6.36146L11.5281 3.75729C11.6261 3.58585 11.7676 3.44322 11.9382 3.34375C12.1088 3.24428 12.3025 3.19147 12.5 3.19062C12.6987 3.18889 12.8943 3.24032 13.0665 3.33959C13.2386 3.43886 13.3811 3.58235 13.4792 3.75521L14.9896 6.35417C14.9992 6.3724 15.0148 6.38669 15.0339 6.3945C15.0529 6.40231 15.0741 6.40315 15.0938 6.39687L17.9917 5.625C18.1831 5.57459 18.3844 5.57523 18.5755 5.62687C18.7665 5.67851 18.9407 5.77934 19.0807 5.9193C19.2207 6.05926 19.3215 6.23347 19.3731 6.42456C19.4248 6.61564 19.4254 6.81692 19.375 7.00833L18.5958 9.925C18.5907 9.94465 18.5921 9.96542 18.5998 9.98421C18.6075 10.003 18.6211 10.0188 18.6385 10.0292L21.2427 11.5281C21.4147 11.6274 21.5575 11.7702 21.6568 11.9422C21.7561 12.1142 21.8083 12.3092 21.8083 12.5078C21.8083 12.7064 21.7561 12.9015 21.6568 13.0734C21.5575 13.2454 21.4147 13.3882 21.2427 13.4875L18.6458 14.9896C18.6284 15 18.6148 15.0158 18.6071 15.0345C18.5994 15.0533 18.598 15.0741 18.6031 15.0937L19.3823 17.9937C19.4328 18.1858 19.432 18.3877 19.3799 18.5793C19.3277 18.7709 19.2261 18.9454 19.0852 19.0853C18.9444 19.2253 18.7692 19.3257 18.5772 19.3765C18.3853 19.4274 18.1833 19.4268 17.9917 19.375L15.075 18.5958C15.0554 18.5907 15.0346 18.5921 15.0158 18.5998C14.997 18.6075 14.9812 18.6211 14.9708 18.6385L13.4719 21.2427C13.3733 21.4152 13.2307 21.5585 13.0587 21.6581C12.8867 21.7576 12.6914 21.8098 12.4927 21.8094H12.5ZM9.93126 17.5552C10.1298 17.5551 10.3249 17.6071 10.4971 17.706C10.6693 17.8049 10.8125 17.9472 10.9125 18.1187L12.4208 20.7229C12.4282 20.7371 12.4395 20.7488 12.4533 20.7568C12.4672 20.7647 12.483 20.7685 12.499 20.7677C12.5147 20.7683 12.5304 20.7644 12.544 20.7565C12.5576 20.7486 12.5688 20.7369 12.576 20.7229L14.076 18.1187C14.1996 17.9023 14.3915 17.7329 14.6217 17.6373C14.8519 17.5417 15.1074 17.5253 15.3479 17.5906L18.2646 18.3687C18.2799 18.3727 18.2959 18.3726 18.3111 18.3684C18.3263 18.3643 18.3402 18.3562 18.3513 18.3451C18.3625 18.3339 18.3705 18.3201 18.3747 18.3049C18.3788 18.2896 18.379 18.2736 18.375 18.2583L17.5969 15.3573C17.5325 15.1174 17.5486 14.8629 17.6426 14.633C17.7367 14.4031 17.9036 14.2104 18.1177 14.0844L20.7219 12.576C20.7358 12.5683 20.7473 12.5569 20.7554 12.5432C20.7634 12.5295 20.7676 12.5138 20.7676 12.4979C20.7676 12.482 20.7634 12.4664 20.7554 12.4526C20.7473 12.4389 20.7358 12.4276 20.7219 12.4198L18.1177 10.9208C17.902 10.7965 17.7333 10.6045 17.6378 10.3745C17.5423 10.1446 17.5254 9.88953 17.5896 9.64896L18.3677 6.73229C18.3725 6.71719 18.3729 6.70104 18.3688 6.68573C18.3648 6.67041 18.3564 6.65658 18.3448 6.64583C18.3333 6.63459 18.3192 6.62648 18.3037 6.62229C18.2882 6.61809 18.2718 6.61795 18.2563 6.62187L15.3563 7.4C15.1163 7.4644 14.8619 7.44832 14.632 7.35425C14.402 7.26017 14.2093 7.09328 14.0833 6.87917L12.575 4.275C12.5676 4.26171 12.5567 4.25071 12.5435 4.24318C12.5302 4.23565 12.5152 4.23189 12.5 4.23229C12.4842 4.23169 12.4686 4.23558 12.455 4.24351C12.4413 4.25144 12.4302 4.26308 12.4229 4.27708L10.9229 6.88125C10.798 7.09669 10.6058 7.26509 10.3758 7.36052C10.1457 7.45595 9.89074 7.47312 9.65001 7.40937L6.73334 6.63125C6.71807 6.6273 6.70204 6.62741 6.68682 6.63156C6.67161 6.63571 6.65774 6.64376 6.64659 6.65491C6.63543 6.66606 6.62739 6.67993 6.62324 6.69515C6.61909 6.71036 6.61898 6.7264 6.62292 6.74167L7.40626 9.63958C7.47065 9.87952 7.45458 10.134 7.3605 10.3639C7.26643 10.5938 7.09954 10.7865 6.88542 10.9125L4.28126 12.4208C4.26615 12.4277 4.25342 12.4388 4.24469 12.4529C4.23597 12.467 4.23166 12.4834 4.2323 12.5C4.2317 12.5158 4.23559 12.5314 4.24352 12.545C4.25145 12.5587 4.26309 12.5698 4.27709 12.5771L6.88126 14.0771C7.09649 14.2019 7.26475 14.394 7.36016 14.6238C7.45558 14.8536 7.47287 15.1084 7.40938 15.349L6.63126 18.2656C6.62647 18.2807 6.62607 18.2969 6.63013 18.3122C6.63419 18.3275 6.64253 18.3413 6.65417 18.3521C6.66564 18.3633 6.67981 18.3714 6.69532 18.3756C6.71082 18.3798 6.72714 18.38 6.74272 18.376L9.64272 17.5979C9.73642 17.5702 9.83355 17.5558 9.93126 17.5552Z" fill="black"/>
<path d="M12.5 16.5365C11.7017 16.5365 10.9212 16.2997 10.2575 15.8562C9.59366 15.4127 9.0763 14.7823 8.77079 14.0447C8.46528 13.3071 8.38535 12.4955 8.54109 11.7125C8.69684 10.9295 9.08128 10.2103 9.64578 9.64579C10.2103 9.08128 10.9295 8.69685 11.7125 8.5411C12.4955 8.38535 13.3071 8.46529 14.0447 8.7708C14.7822 9.07631 15.4127 9.59367 15.8562 10.2575C16.2997 10.9213 16.5365 11.7017 16.5365 12.5C16.5351 13.5701 16.1094 14.596 15.3527 15.3527C14.596 16.1094 13.5701 16.5351 12.5 16.5365ZM12.5 9.50521C11.9077 9.50521 11.3287 9.68085 10.8362 10.0099C10.3437 10.339 9.95983 10.8067 9.73316 11.3539C9.5065 11.9012 9.44719 12.5033 9.56274 13.0843C9.6783 13.6652 9.96352 14.1988 10.3824 14.6176C10.8012 15.0365 11.3348 15.3217 11.9157 15.4372C12.4967 15.5528 13.0988 15.4935 13.646 15.2668C14.1933 15.0402 14.661 14.6563 14.9901 14.1638C15.3191 13.6713 15.4948 13.0923 15.4948 12.5C15.4934 11.7062 15.1774 10.9452 14.6161 10.3839C14.0548 9.82255 13.2938 9.50658 12.5 9.50521Z" fill="black"/>
</svg>
